<?xml version="1.0" encoding="iso-8859-1"?>
<!-- Generator: Adobe Illustrator 19.0.0, SVG Export Plug-In . SVG Version: 6.00 Build 0)  -->
<svg version="1.1" id="Capa_1" xmlns="http://www.w3.org/2000/svg" xmlns:xlink="http://www.w3.org/1999/xlink" x="0px" y="0px"
	 viewBox="0 0 480 480" style="enable-background:new 0 0 480 480;" xml:space="preserve">
<g>
	<g>
		<path d="M448,12h-32c0-4.418-3.582-8-8-8H72c-4.418,0-8,3.582-8,8H32C14.327,12,0,26.327,0,44v64
			c0.003,11.429,6.102,21.989,16,27.704V284c0.001,4.418,3.583,7.999,8.002,7.998c2.121,0,4.154-0.843,5.654-2.342L56,263.312
			l26.344,26.344c1.5,1.5,3.534,2.344,5.656,2.344c1.052,0.003,2.093-0.203,3.064-0.608c2.989-1.239,4.937-4.157,4.936-7.392
			V153.008c28.145,40.147,71.751,66.744,120.328,73.392c-0.163,0.521-0.273,1.057-0.328,1.6v64h-40c-30.911,0.04-55.96,25.089-56,56
			v120c0,4.418,3.582,8,8,8h224c4.418,0,8-3.582,8-8V348c-0.04-30.911-25.089-55.96-56-56h-40v-64
			c-0.055-0.543-0.165-1.079-0.328-1.6c48.577-6.648,92.184-33.245,120.328-73.392V284c0,4.418,3.582,8,8,8
			c1.731,0,3.415-0.561,4.8-1.6L424,270l27.2,20.4c1.385,1.039,3.069,1.6,4.8,1.6c4.418,0,8-3.582,8-8V135.704
			c9.898-5.715,15.997-16.275,16-27.704V44C480,26.327,465.673,12,448,12z M16,108V44c0-8.837,7.163-16,16-16h32v24
			c-0.013,24.825,5.258,49.369,15.464,72H32C23.163,124,16,116.837,16,108z M80,264.688l-18.344-18.344
			c-3.124-3.123-8.188-3.123-11.312,0L32,264.688V140h48V264.688z M304,308c22.08,0.026,39.974,17.92,40,40v112H136V348
			c0.026-22.08,17.92-39.974,40-40H304z M232,292v-56h16v56H232z M240,212c-88.323-0.101-159.899-71.677-160-160V20h320v32
			C399.899,140.323,328.324,211.899,240,212z M448,268l-19.2-14.4c-2.844-2.133-6.756-2.133-9.6,0L400,268V140h48V268z M464,108
			c0,8.837-7.163,16-16,16h-47.464c10.206-22.631,15.477-47.175,15.464-72V28h32c8.837,0,16,7.163,16,16V108z"/>
	</g>
</g>
<g>
	<g>
		<path d="M302.508,367.092c-1.498-2.107-3.923-3.361-6.508-3.364h-37.016l-11.392-34.248c-1.086-3.271-4.145-5.48-7.592-5.48
			c-3.447,0-6.506,2.208-7.592,5.48l-11.392,34.248H184c-4.418,0.006-7.995,3.593-7.988,8.012c0.004,2.586,1.257,5.01,3.364,6.508
			l29.776,21.12L197.8,433.48c-1.389,4.194,0.884,8.721,5.078,10.11c2.417,0.801,5.07,0.403,7.146-1.07L240,421.256l29.976,21.264
			c3.603,2.557,8.597,1.709,11.154-1.894c1.473-2.076,1.871-4.729,1.07-7.146l-11.352-34.112l29.776-21.12
			C304.225,375.688,305.069,370.693,302.508,367.092z M256.8,389.752c-2.872,2.035-4.077,5.707-2.968,9.048l5.496,16.528
			l-14.664-10.4c-2.774-1.97-6.49-1.97-9.264,0l-14.664,10.4l5.496-16.528c1.109-3.341-0.096-7.013-2.968-9.048l-14.12-10.024
			h17.672c3.447,0,6.506-2.208,7.592-5.48l5.6-16.912l5.6,16.912c1.086,3.271,4.145,5.48,7.592,5.48h17.688L256.8,389.752z"/>
	</g>
</g>
<g>
	<g>
		<path d="M366.552,92.48c-4.153-1.5-8.736,0.648-10.24,4.8c-16.04,44.344-44.96,71.2-85.952,79.744
			c-4.321,0.921-7.078,5.171-6.157,9.492c0.782,3.668,4.007,6.301,7.757,6.332c0.554,0.003,1.106-0.054,1.648-0.168
			c46.128-9.64,79.912-40.752,97.72-89.96C372.831,98.574,370.694,93.993,366.552,92.48z"/>
	</g>
</g>
<g>
	<g>
		<path d="M376,28c-4.418,0-8,3.582-8,8c-0.189,7.646-0.884,15.27-2.08,22.824c-0.654,4.37,2.358,8.442,6.728,9.096c0,0,0,0,0,0
			c0.395,0.054,0.793,0.081,1.192,0.08c3.961,0,7.326-2.899,7.912-6.816C383.073,52.85,383.824,44.436,384,36
			C384,31.582,380.418,28,376,28z"/>
	</g>
</g>
<g>
</g>
<g>
</g>
<g>
</g>
<g>
</g>
<g>
</g>
<g>
</g>
<g>
</g>
<g>
</g>
<g>
</g>
<g>
</g>
<g>
</g>
<g>
</g>
<g>
</g>
<g>
</g>
<g>
</g>
</svg>
