<?xml version="1.0" ?><!DOCTYPE svg  PUBLIC '-//W3C//DTD SVG 1.1//EN'  'http://www.w3.org/Graphics/SVG/1.1/DTD/svg11.dtd'><svg enable-background="new 0 0 30 30" height="30px" id="Skype" version="1.1" viewBox="0 0 30 30" width="30px" xml:space="preserve" xmlns="http://www.w3.org/2000/svg" xmlns:xlink="http://www.w3.org/1999/xlink"><path clip-rule="evenodd" d="M29.084,18.496c-0.089-0.207-0.128-0.397-0.081-0.627  c0.339-1.676,0.351-3.355,0.072-5.044c-1.225-7.441-8.236-12.658-15.687-11.65c-0.438,0.059-0.799-0.01-1.189-0.219  c-3.149-1.682-7-1.104-9.561,1.41c-2.521,2.477-3.156,6.347-1.541,9.499c0.17,0.332,0.223,0.631,0.146,1  c-0.155,0.756-0.17,1.529-0.205,2.335c0.027,0.45,0.035,0.937,0.086,1.42c0.843,8.064,8.229,13.722,16.273,12.464  c0.246-0.038,0.452,0.003,0.672,0.113c1.521,0.767,3.152,0.953,4.797,0.69C28.245,29.031,31.241,23.504,29.084,18.496z   M22.073,22.255c-0.902,1.028-2.04,1.687-3.331,2.058c-2.423,0.697-4.871,0.721-7.283-0.005C9.264,23.646,7.645,22.287,7,20.007  c-0.457-1.617,0.586-2.825,2.197-2.636c0.695,0.082,1.153,0.503,1.479,1.083c0.204,0.363,0.376,0.747,0.559,1.123  c0.599,1.227,1.562,1.92,2.931,2.07c1.121,0.123,2.204,0.043,3.241-0.427c0.401-0.182,0.756-0.432,1.046-0.767  c0.775-0.896,0.636-2.163-0.316-2.868c-0.92-0.681-2.023-0.863-3.098-1.103c-1.536-0.343-3.078-0.668-4.523-1.312  c-1.494-0.666-2.707-1.633-3.098-3.322C6.963,9.89,7.509,8.232,9.077,6.961c1.384-1.121,3.05-1.483,4.773-1.634  c0.399-0.035,0.803-0.005,1.204-0.005c1.592-0.043,3.143,0.167,4.58,0.9c1.1,0.562,2.011,1.327,2.541,2.476  c0.259,0.563,0.383,1.163,0.216,1.762c-0.202,0.728-0.697,1.234-1.449,1.387c-0.782,0.159-1.511,0.035-2.003-0.692  c-0.235-0.346-0.461-0.698-0.673-1.059c-0.672-1.145-1.631-1.782-2.991-1.778c-0.621,0.003-1.24-0.018-1.848,0.13  c-0.547,0.132-1.047,0.359-1.462,0.744c-0.739,0.687-0.711,1.629,0.078,2.257c0.52,0.413,1.134,0.644,1.771,0.806  c1.49,0.38,2.988,0.733,4.477,1.122c0.811,0.212,1.585,0.53,2.336,0.907C24.117,16.033,23.868,20.212,22.073,22.255z" fill-rule="evenodd" id="S"/></svg>