<?xml version="1.0" ?><!DOCTYPE svg  PUBLIC '-//W3C//DTD SVG 1.1//EN'  'http://www.w3.org/Graphics/SVG/1.1/DTD/svg11.dtd'><svg enable-background="new 0 0 30 30" height="30px" id="Layer_4" version="1.1" viewBox="0 0 512 512" width="30px" xml:space="preserve" xmlns="http://www.w3.org/2000/svg" xmlns:xlink="http://www.w3.org/1999/xlink"><polygon points="212.648,304.828 116.083,403.306 234.501,320.324 "/><polygon points="431.715,81.417 431.715,98.437 257.845,224.466 83.622,98.437 83.622,81.417 10.188,81.417 10.188,446.08   83.622,446.08 83.622,206.634 42.907,171.56 83.622,200.997 83.622,200.86 118.289,226.071 163.278,258.598 163.255,258.771   257.896,327.257 352.082,258.771 352.061,258.598 397.044,226.071 431.715,200.86 431.715,200.997 472.43,171.56 431.715,206.634   431.715,442.758 505.144,442.758 505.144,81.417 "/><polygon points="301.557,307.409 399.986,403.306 283.192,319.55 "/><g><path d="M505.044,445.569H9.213V80.515h495.831V445.569z M486.621,98.938H27.635v328.21h458.986V98.938L486.621,98.938z"/></g></svg>