<?xml version="1.0" encoding="UTF-8" standalone="no"?>
<!-- Created with Inkscape (http://www.inkscape.org/) -->

<svg
   xmlns:dc="http://purl.org/dc/elements/1.1/"
   xmlns:cc="http://creativecommons.org/ns#"
   xmlns:rdf="http://www.w3.org/1999/02/22-rdf-syntax-ns#"
   xmlns:svg="http://www.w3.org/2000/svg"
   xmlns="http://www.w3.org/2000/svg"
   xmlns:sodipodi="http://sodipodi.sourceforge.net/DTD/sodipodi-0.dtd"
   xmlns:inkscape="http://www.inkscape.org/namespaces/inkscape"
   width="100"
   height="71"
   viewBox="0 0 26.458333 18.785417"
   version="1.1"
   id="svg8"
   inkscape:version="0.92.3 (2405546, 2018-03-11)"
   sodipodi:docname="logo.svg"
   inkscape:export-filename="/home/opodchasov/Рабочий стол/mysite/design/logo.svg.png"
   inkscape:export-xdpi="96"
   inkscape:export-ydpi="96">
  <defs
     id="defs2" />
  <sodipodi:namedview
     id="base"
     pagecolor="#ffffff"
     bordercolor="#666666"
     borderopacity="1.0"
     inkscape:pageopacity="0.0"
     inkscape:pageshadow="2"
     inkscape:zoom="7.9999999"
     inkscape:cx="24.022592"
     inkscape:cy="30.248944"
     inkscape:document-units="px"
     inkscape:current-layer="layer2"
     showgrid="false"
     inkscape:window-width="1920"
     inkscape:window-height="1004"
     inkscape:window-x="0"
     inkscape:window-y="0"
     inkscape:window-maximized="1"
     inkscape:object-paths="true"
     showguides="true"
     inkscape:guide-bbox="true"
     units="px" />
  <metadata
     id="metadata5">
    <rdf:RDF>
      <cc:Work
         rdf:about="">
        <dc:format>image/svg+xml</dc:format>
        <dc:type
           rdf:resource="http://purl.org/dc/dcmitype/StillImage" />
        <dc:title />
      </cc:Work>
    </rdf:RDF>
  </metadata>
  <g
     inkscape:groupmode="layer"
     id="layer2"
     inkscape:label="Layer 2"
     style="opacity:1"
     transform="translate(0,-278.21457)">
    <path
       style="fill:#011826;stroke:none;stroke-width:0.26458332px;stroke-linecap:butt;stroke-linejoin:miter;stroke-opacity:1;fill-opacity:1"
       d="m 0.23933779,287.53938 4.18827531,-2.4181 0.1413711,3.7599 z"
       id="path841"
       inkscape:connector-curvature="0" />
    <path
       style="fill:#011826;stroke:none;stroke-width:0.26458332px;stroke-linecap:butt;stroke-linejoin:miter;stroke-opacity:1;fill-opacity:1"
       d="m 26.307113,287.7869 -4.188355,2.41815 -0.555951,-3.72558 z"
       id="path843"
       inkscape:connector-curvature="0" />
    <path
       style="opacity:1;fill:#011826;fill-opacity:1;stroke:none;stroke-width:0.03537012px;stroke-linecap:butt;stroke-linejoin:miter;stroke-opacity:1"
       d="m 16.494883,287.7869 -6.072769,3.50611 -0.370546,-4.43139 z"
       id="path1380-44"
       inkscape:connector-curvature="0" />
    <path
       inkscape:connector-curvature="0"
       id="path1305-37"
       d="m 10.237083,287.53938 6.072285,-3.50584 -0.123866,4.54859 z"
       style="opacity:1;fill:#011826;fill-opacity:1;stroke:none;stroke-width:0.03537012px;stroke-linecap:butt;stroke-linejoin:miter;stroke-opacity:1" />
    <path
       style="color:#000000;font-style:normal;font-variant:normal;font-weight:normal;font-stretch:normal;font-size:medium;line-height:normal;font-family:sans-serif;font-variant-ligatures:normal;font-variant-position:normal;font-variant-caps:normal;font-variant-numeric:normal;font-variant-alternates:normal;font-feature-settings:normal;text-indent:0;text-align:start;text-decoration:none;text-decoration-line:none;text-decoration-style:solid;text-decoration-color:#000000;letter-spacing:normal;word-spacing:normal;text-transform:none;writing-mode:lr-tb;direction:ltr;text-orientation:mixed;dominant-baseline:auto;baseline-shift:baseline;text-anchor:start;white-space:normal;shape-padding:0;clip-rule:nonzero;display:inline;overflow:visible;visibility:visible;opacity:1;isolation:auto;mix-blend-mode:normal;color-interpolation:sRGB;color-interpolation-filters:linearRGB;solid-color:#000000;solid-opacity:1;vector-effect:none;fill:#011826;fill-opacity:1;fill-rule:nonzero;stroke:none;stroke-width:0.82907432;stroke-linecap:butt;stroke-linejoin:miter;stroke-miterlimit:4;stroke-dasharray:none;stroke-dashoffset:0;stroke-opacity:1;color-rendering:auto;image-rendering:auto;shape-rendering:auto;text-rendering:auto;enable-background:accumulate"
       d="m 13.27318,278.46023 c -5.07321,0 -9.2027161,4.1296 -9.2027161,9.2028 0,5.07321 4.1295144,9.20273 9.2027161,9.20273 5.073218,0 9.202807,-4.12951 9.202807,-9.20273 0,-5.07321 -4.129589,-9.2028 -9.202807,-9.2028 z"
       id="path4543-3"
       inkscape:connector-curvature="0" />
    <path
       style="color:#000000;font-style:normal;font-variant:normal;font-weight:normal;font-stretch:normal;font-size:medium;line-height:normal;font-family:sans-serif;font-variant-ligatures:normal;font-variant-position:normal;font-variant-caps:normal;font-variant-numeric:normal;font-variant-alternates:normal;font-feature-settings:normal;text-indent:0;text-align:start;text-decoration:none;text-decoration-line:none;text-decoration-style:solid;text-decoration-color:#000000;letter-spacing:normal;word-spacing:normal;text-transform:none;writing-mode:lr-tb;direction:ltr;text-orientation:mixed;dominant-baseline:auto;baseline-shift:baseline;text-anchor:start;white-space:normal;shape-padding:0;clip-rule:nonzero;display:inline;overflow:visible;visibility:visible;opacity:1;isolation:auto;mix-blend-mode:normal;color-interpolation:sRGB;color-interpolation-filters:linearRGB;solid-color:#000000;solid-opacity:1;vector-effect:none;fill:#ffffff;fill-opacity:1;fill-rule:nonzero;stroke:none;stroke-width:0.82907432;stroke-linecap:butt;stroke-linejoin:miter;stroke-miterlimit:4;stroke-dasharray:none;stroke-dashoffset:0;stroke-opacity:1;color-rendering:auto;image-rendering:auto;shape-rendering:auto;text-rendering:auto;enable-background:accumulate"
       d="m 13.273184,278.87477 c -4.8486708,0 -8.7881858,3.93959 -8.7881858,8.78826 0,4.84868 3.939515,8.7882 8.7881858,8.7882 4.848672,0 8.788269,-3.93952 8.788269,-8.7882 0,-4.84867 -3.939597,-8.78826 -8.788269,-8.78826 z"
       id="path4534-47"
       inkscape:connector-curvature="0" />
    <circle
       id="path4524-2"
       cx="13.273226"
       cy="287.66306"
       r="8.3736496"
       style="opacity:1;fill:#0093a1;fill-opacity:1;stroke-width:0.04145371" />
    <path
       style="color:#000000;font-style:normal;font-variant:normal;font-weight:normal;font-stretch:normal;font-size:medium;line-height:normal;font-family:sans-serif;font-variant-ligatures:normal;font-variant-position:normal;font-variant-caps:normal;font-variant-numeric:normal;font-variant-alternates:normal;font-feature-settings:normal;text-indent:0;text-align:start;text-decoration:none;text-decoration-line:none;text-decoration-style:solid;text-decoration-color:#000000;letter-spacing:normal;word-spacing:normal;text-transform:none;writing-mode:lr-tb;direction:ltr;text-orientation:mixed;dominant-baseline:auto;baseline-shift:baseline;text-anchor:start;white-space:normal;shape-padding:0;clip-rule:nonzero;display:inline;overflow:visible;visibility:visible;opacity:1;isolation:auto;mix-blend-mode:normal;color-interpolation:sRGB;color-interpolation-filters:linearRGB;solid-color:#000000;solid-opacity:1;vector-effect:none;fill:#011826;fill-opacity:1;fill-rule:nonzero;stroke:none;stroke-width:0.88425297;stroke-linecap:butt;stroke-linejoin:miter;stroke-miterlimit:4;stroke-dasharray:none;stroke-dashoffset:0;stroke-opacity:1;color-rendering:auto;image-rendering:auto;shape-rendering:auto;text-rendering:auto;enable-background:accumulate"
       d="m 0.2393378,287.53938 v 0.44205 3.05951 L 26.307113,287.7869 v -3.50158 z"
       id="path829-1"
       inkscape:connector-curvature="0" />
    <rect
       style="opacity:1;fill:#ffffff;stroke:none;stroke-width:0.71014214;stroke-miterlimit:4;stroke-dasharray:none"
       id="rect821-7"
       width="25.378975"
       height="2.6173887"
       x="0.68675369"
       y="288.01126"
       transform="matrix(0.99229858,-0.12386902,0,1,0,0)" />
    <text
       xml:space="preserve"
       style="font-style:normal;font-variant:normal;font-weight:bold;font-stretch:normal;font-size:2.40516806px;line-height:1.25;font-family:Manjari;-inkscape-font-specification:'Manjari, Bold';font-variant-ligatures:normal;font-variant-caps:normal;font-variant-numeric:normal;font-feature-settings:normal;text-align:start;letter-spacing:0px;word-spacing:0px;writing-mode:lr-tb;text-anchor:start;opacity:1;fill:#000000;fill-opacity:1;stroke:none;stroke-width:0.0444889"
       x="1.3524942"
       y="290.20941"
       id="text4548-9"
       transform="skewY(-7.1154481)"><tspan
         style="font-style:normal;font-variant:normal;font-weight:bold;font-stretch:normal;font-size:2.40516806px;font-family:Manjari;-inkscape-font-specification:'Manjari, Bold';font-variant-ligatures:normal;font-variant-caps:normal;font-variant-numeric:normal;font-feature-settings:normal;text-align:start;writing-mode:lr-tb;text-anchor:start;stroke-width:0.0444889"
         sodipodi:role="line"
         id="tspan956-5"
         x="1.3524942"
         y="290.20941">WEB IS MY SHEPHERD</tspan></text>
    <path
       id="path936-2-6"
       d="m 13.273225,291.04947 c -0.429773,0 -0.778195,0.34841 -0.778195,0.77819 0,0.42978 0.348422,0.77819 0.778195,0.77819 0.429781,0 0.778195,-0.34841 0.778195,-0.77819 -5.34e-4,-0.42957 -0.348619,-0.77771 -0.778195,-0.77819 z m 0.673025,1.05081 -0.221306,0.0382 c 0.02535,-0.0929 0.03905,-0.18859 0.04069,-0.28486 h 0.233226 c -0.0033,0.0847 -0.02075,0.16819 -0.05267,0.24668 z m -1.398689,-0.24668 h 0.233228 c 0.0017,0.0962 0.01543,0.19196 0.04069,0.28487 l -0.221315,-0.0382 c -0.03191,-0.0785 -0.04972,-0.16201 -0.05268,-0.24669 z m 0.05267,-0.29855 0.221315,-0.0382 c -0.02535,0.0929 -0.03905,0.18859 -0.04069,0.28486 h -0.233293 c 0.0033,-0.0847 0.02075,-0.16818 0.05267,-0.24667 z m 0.698967,-0.0891 c 0.0932,8.3e-4 0.186185,0.01 0.27808,0.0255 l 0.09156,0.0159 c 0.02814,0.0957 0.04324,0.19481 0.04496,0.29457 h -0.414636 z m 0.286915,-0.0257 c -0.0948,-0.0162 -0.190746,-0.025 -0.286915,-0.0261 v -0.31128 c 0.148708,0.0143 0.277891,0.15045 0.351096,0.34861 z m -0.338798,-0.0261 c -0.09617,8.2e-4 -0.192091,0.01 -0.28689,0.0261 l -0.06424,0.0111 c 0.07318,-0.19821 0.202388,-0.33442 0.351096,-0.34864 z m -0.278054,0.0772 c 0.09188,-0.0157 0.184848,-0.0242 0.278054,-0.0254 v 0.33576 h -0.414632 c 0.0017,-0.0998 0.01691,-0.19884 0.04504,-0.29457 z m -0.136582,0.36225 h 0.414636 v 0.33576 c -0.0932,-8.2e-4 -0.186184,-0.01 -0.278079,-0.0254 l -0.09156,-0.0159 c -0.02814,-0.0957 -0.04324,-0.1948 -0.04504,-0.29457 z m 0.127722,0.36149 c 0.0948,0.0163 0.190729,0.0251 0.286914,0.0262 v 0.31127 c -0.148707,-0.0143 -0.27789,-0.15045 -0.351096,-0.34862 z m 0.338797,0.0262 c 0.09617,-8.2e-4 0.192092,-0.0101 0.286891,-0.0262 l 0.06424,-0.0111 c -0.07318,0.19822 -0.202388,0.33441 -0.351096,0.34865 z m 0.278055,-0.0774 c -0.09188,0.0157 -0.184848,0.0242 -0.278055,0.0254 v -0.33576 h 0.414637 c -0.0017,0.0998 -0.01691,0.19884 -0.04496,0.29457 z m 0.18844,-0.36224 c -0.0017,-0.0962 -0.01534,-0.19197 -0.04069,-0.28488 l 0.221306,0.0382 c 0.03191,0.0785 0.04972,0.16199 0.05267,0.24669 z m 0.154345,-0.30386 -0.212135,-0.0366 c -0.03815,-0.12441 -0.109484,-0.23608 -0.206382,-0.32296 0.181188,0.0605 0.331438,0.18955 0.418517,0.35957 z m -0.875045,-0.35956 c -0.09689,0.0868 -0.168241,0.19854 -0.206374,0.32296 l -0.212143,0.0366 c 0.08708,-0.17001 0.237329,-0.29909 0.418517,-0.35956 z m -0.418517,1.01915 0.212143,0.0366 c 0.03815,0.12442 0.109476,0.23608 0.206374,0.32297 -0.181188,-0.0605 -0.331438,-0.18955 -0.418517,-0.35957 z m 0.875045,0.35956 c 0.0969,-0.0869 0.168241,-0.19854 0.206382,-0.32296 l 0.212135,-0.0366 c -0.08708,0.17001 -0.237329,0.29909 -0.418517,0.35956 z m 0,0"
       inkscape:connector-curvature="0"
       style="opacity:1;fill:#ffffff;stroke-width:0.00324246" />
    <path
       style="opacity:1;fill:#ffffff;stroke-width:0.01402881"
       d="m 12.607229,284.07869 c -0.135098,-0.0368 -0.265593,-0.15815 -0.341653,-0.31775 -0.03749,-0.0787 -0.04348,-0.10678 -0.04348,-0.20452 0,-0.10153 0.0041,-0.12043 0.04225,-0.18165 0.02322,-0.0376 0.07688,-0.0957 0.119247,-0.12905 0.163508,-0.12893 0.194602,-0.16 0.238601,-0.23846 0.192846,-0.34386 0.509156,-0.51386 0.794725,-0.42712 0.183543,0.0557 0.359284,0.20377 0.471533,0.39716 0.0571,0.0984 0.105726,0.14931 0.249315,0.26114 0.153171,0.11927 0.205087,0.25496 0.161965,0.42329 -0.02856,0.11134 -0.08057,0.20025 -0.169275,0.28929 -0.148823,0.14936 -0.260941,0.1669 -0.547559,0.0856 -0.280122,-0.0794 -0.380935,-0.0779 -0.673379,0.01 -0.150308,0.045 -0.225909,0.0532 -0.302314,0.0323 z m -0.471467,-0.98426 c -0.127312,-0.0763 -0.193617,-0.23936 -0.184724,-0.45422 0.0049,-0.11698 0.01107,-0.14493 0.04717,-0.21091 0.06014,-0.11004 0.127468,-0.15926 0.227666,-0.16642 0.07285,-0.005 0.08695,-0.002 0.149601,0.0412 0.213168,0.14476 0.251686,0.56794 0.06768,0.74381 -0.07096,0.0678 -0.101968,0.0817 -0.18154,0.0816 -0.04685,-1.1e-4 -0.08542,-0.0109 -0.125868,-0.0351 z m 2.036371,0.0189 c -0.138019,-0.0762 -0.218468,-0.28294 -0.189589,-0.48731 0.04611,-0.32624 0.323948,-0.47928 0.501978,-0.27652 0.09032,0.10288 0.130847,0.27048 0.103026,0.42615 -0.03733,0.20885 -0.167166,0.35446 -0.315292,0.35359 -0.03963,-2.6e-4 -0.0847,-0.008 -0.100123,-0.016 z m -1.41691,-0.59905 c -0.24372,-0.111 -0.321061,-0.54181 -0.144983,-0.80765 0.09746,-0.14712 0.259939,-0.19191 0.392124,-0.10808 0.189523,0.12019 0.261843,0.45578 0.152958,0.70979 -0.05538,0.12926 -0.185635,0.2315 -0.294881,0.2315 -0.02699,0 -0.07433,-0.0114 -0.105218,-0.0256 z m 0.812791,8.3e-4 c -0.103504,-0.0578 -0.160145,-0.12699 -0.204275,-0.24977 -0.03897,-0.10839 -0.04332,-0.30268 -0.0093,-0.41279 0.11302,-0.36551 0.467381,-0.39885 0.615917,-0.0579 0.114578,0.26297 0.01936,0.62137 -0.191058,0.71899 -0.06974,0.0323 -0.154926,0.033 -0.211306,0.002 z"
       id="path1118-5-8"
       inkscape:connector-curvature="0" />
    <text
       xml:space="preserve"
       style="font-style:normal;font-variant:normal;font-weight:normal;font-stretch:normal;font-size:4.2703948px;line-height:1.25;font-family:Manjari;-inkscape-font-specification:'Manjari, Normal';font-variant-ligatures:normal;font-variant-caps:normal;font-variant-numeric:normal;font-feature-settings:normal;text-align:start;letter-spacing:0.56208962px;word-spacing:0px;writing-mode:lr-tb;text-anchor:start;opacity:1;fill:#ffffff;fill-opacity:1;stroke:none;stroke-width:0.09462787"
       x="9.2940197"
       y="284.03568"
       id="text1122-8-9"><tspan
         sodipodi:role="line"
         id="tspan1120-2-5"
         x="9.2940197"
         y="284.03568"
         style="font-style:normal;font-variant:normal;font-weight:normal;font-stretch:normal;font-size:4.2703948px;font-family:Manjari;-inkscape-font-specification:'Manjari, Normal';font-variant-ligatures:normal;font-variant-caps:normal;font-variant-numeric:normal;font-feature-settings:normal;text-align:start;writing-mode:lr-tb;text-anchor:start;fill:#ffffff;stroke-width:0.09462787">&lt;  &gt;</tspan></text>
    <g
       aria-label="WEB DEVELOPMENT"
       style="font-style:normal;font-variant:normal;font-weight:normal;font-stretch:normal;font-size:8.46666622px;line-height:1.25;font-family:Montserrat;-inkscape-font-specification:'Montserrat, Normal';font-variant-ligatures:normal;font-variant-caps:normal;font-variant-numeric:normal;font-feature-settings:normal;text-align:start;letter-spacing:1.57162499px;word-spacing:0px;writing-mode:lr-tb;text-anchor:start;opacity:1;fill:#ffffff;fill-opacity:1;stroke:none;stroke-width:0.26458332"
       id="text962-5"
       transform="matrix(0.13368233,0,0,0.13368233,-0.60747591,278.86573)">
      <path
         d="m 67.14381,99.331672 -6.023954,1.682228 -0.371523,-0.54599 3.202442,-4.278533 -5.160081,1.40162 -0.36676,-0.538984 3.775764,-4.986132 0.361997,0.531984 -3.25173,4.281354 5.20937,-1.404436 0.328654,0.482986 -3.253677,4.323641 5.211317,-1.446724 z"
         style="font-style:normal;font-variant:normal;font-weight:normal;font-stretch:normal;font-size:8.46666622px;font-family:Montserrat;-inkscape-font-specification:'Montserrat, Normal';font-variant-ligatures:normal;font-variant-caps:normal;font-variant-numeric:normal;font-feature-settings:normal;text-align:start;writing-mode:lr-tb;text-anchor:start;fill:#ffffff;stroke-width:0.26458332"
         id="path969-21"
         inkscape:connector-curvature="0" />
      <path
         d="m 67.431041,107.28217 -0.389941,0.37625 -2.910074,-3.01595 4.264978,-4.11525 2.82189,2.92455 -0.389941,0.37626 -2.386849,-2.47369 -1.517113,1.46385 2.128175,2.20561 -0.383848,0.37037 -2.128175,-2.2056 -1.584135,1.52852 z"
         style="font-style:normal;font-variant:normal;font-weight:normal;font-stretch:normal;font-size:8.46666622px;font-family:Montserrat;-inkscape-font-specification:'Montserrat, Normal';font-variant-ligatures:normal;font-variant-caps:normal;font-variant-numeric:normal;font-feature-settings:normal;text-align:start;writing-mode:lr-tb;text-anchor:start;fill:#ffffff;stroke-width:0.26458332"
         id="path971-5"
         inkscape:connector-curvature="0" />
      <path
         d="m 74.144938,109.56842 q 0.38383,0.45836 0.397907,0.95141 0.02596,0.49155 -0.337232,0.9599 -0.466955,0.60216 -1.169461,0.58238 -0.690627,-0.0213 -1.560414,-0.69577 l -2.154393,-1.67067 3.631877,-4.68346 2.02058,1.56689 q 0.782808,0.60704 0.967156,1.25356 0.191039,0.65171 -0.255164,1.22711 -0.300927,0.38806 -0.70768,0.51191 -0.394874,0.12235 -0.833176,-0.003 z m -1.013099,-3.76414 -1.317853,1.69943 1.492018,1.15701 q 0.568707,0.44101 1.042506,0.46558 0.478988,0.0179 0.800668,-0.39695 0.321681,-0.41482 0.179939,-0.86759 -0.136554,-0.45946 -0.70526,-0.90047 z m -1.346299,5.14874 q 0.628922,0.48771 1.116103,0.52265 0.48718,0.0349 0.839991,-0.42003 0.67968,-0.87647 -0.591546,-1.86227 l -1.652594,-1.28153 -1.364548,1.75964 z"
         style="font-style:normal;font-variant:normal;font-weight:normal;font-stretch:normal;font-size:8.46666622px;font-family:Montserrat;-inkscape-font-specification:'Montserrat, Normal';font-variant-ligatures:normal;font-variant-caps:normal;font-variant-numeric:normal;font-feature-settings:normal;text-align:start;writing-mode:lr-tb;text-anchor:start;fill:#ffffff;stroke-width:0.26458332"
         id="path973-9"
         inkscape:connector-curvature="0" />
      <path
         d="m 81.543336,110.86246 2.190158,1.01281 q 0.853009,0.39446 1.346298,1.04234 0.496842,0.64019 0.573729,1.422 0.08044,0.77412 -0.282036,1.55797 -0.362478,0.78384 -1.007958,1.2316 -0.641927,0.44007 -1.455049,0.48382 -0.809568,0.0361 -1.662577,-0.35839 l -2.190158,-1.01281 z m -0.100737,5.88611 q 0.706999,0.32694 1.365181,0.29549 0.661736,-0.0391 1.181194,-0.39591 0.523012,-0.36447 0.821523,-1.00999 0.298511,-0.64552 0.233927,-1.27239 -0.06103,-0.63455 -0.463346,-1.15641 -0.398761,-0.52954 -1.10576,-0.85648 l -1.590746,-0.73562 -2.032719,4.39569 z"
         style="font-style:normal;font-variant:normal;font-weight:normal;font-stretch:normal;font-size:8.46666622px;font-family:Montserrat;-inkscape-font-specification:'Montserrat, Normal';font-variant-ligatures:normal;font-variant-caps:normal;font-variant-numeric:normal;font-feature-settings:normal;text-align:start;writing-mode:lr-tb;text-anchor:start;fill:#ffffff;stroke-width:0.26458332"
         id="path975-9"
         inkscape:connector-curvature="0" />
      <path
         d="m 91.12657,120.21704 -0.153023,0.51981 -4.020412,-1.18354 1.673693,-5.68543 3.898581,1.14768 -0.153023,0.51981 -3.29755,-0.97075 -0.595357,2.02239 2.94018,0.86554 -0.150632,0.51169 -2.94018,-0.86554 -0.621658,2.11173 z"
         style="font-style:normal;font-variant:normal;font-weight:normal;font-stretch:normal;font-size:8.46666622px;font-family:Montserrat;-inkscape-font-specification:'Montserrat, Normal';font-variant-ligatures:normal;font-variant-caps:normal;font-variant-numeric:normal;font-feature-settings:normal;text-align:start;writing-mode:lr-tb;text-anchor:start;fill:#ffffff;stroke-width:0.26458332"
         id="path977-1"
         inkscape:connector-curvature="0" />
      <path
         d="m 99.646229,116.23473 -3.486068,5.46458 -0.611038,-0.093 -1.703572,-6.25396 0.669631,0.10185 1.469151,5.43042 3.034117,-4.74543 z"
         style="font-style:normal;font-variant:normal;font-weight:normal;font-stretch:normal;font-size:8.46666622px;font-family:Montserrat;-inkscape-font-specification:'Montserrat, Normal';font-variant-ligatures:normal;font-variant-caps:normal;font-variant-numeric:normal;font-feature-settings:normal;text-align:start;writing-mode:lr-tb;text-anchor:start;fill:#ffffff;stroke-width:0.26458332"
         id="path979-62"
         inkscape:connector-curvature="0" />
      <path
         d="m 105.37239,121.73535 -0.008,0.54181 -4.19057,-0.06 0.0849,-5.92606 4.06359,0.0582 -0.008,0.54181 -3.43711,-0.0493 -0.0302,2.10798 3.06461,0.0439 -0.008,0.53335 -3.06462,-0.0439 -0.0315,2.20111 z"
         style="font-style:normal;font-variant:normal;font-weight:normal;font-stretch:normal;font-size:8.46666622px;font-family:Montserrat;-inkscape-font-specification:'Montserrat, Normal';font-variant-ligatures:normal;font-variant-caps:normal;font-variant-numeric:normal;font-feature-settings:normal;text-align:start;writing-mode:lr-tb;text-anchor:start;fill:#ffffff;stroke-width:0.26458332"
         id="path981-10"
         inkscape:connector-curvature="0" />
      <path
         d="m 107.73587,116.18223 0.62242,-0.0717 0.616,5.34945 3.29715,-0.37967 0.062,0.53831 -3.91956,0.45134 z"
         style="font-style:normal;font-variant:normal;font-weight:normal;font-stretch:normal;font-size:8.46666622px;font-family:Montserrat;-inkscape-font-specification:'Montserrat, Normal';font-variant-ligatures:normal;font-variant-caps:normal;font-variant-numeric:normal;font-feature-settings:normal;text-align:start;writing-mode:lr-tb;text-anchor:start;fill:#ffffff;stroke-width:0.26458332"
         id="path983-5"
         inkscape:connector-curvature="0" />
      <path
         d="m 117.32078,120.55118 q -0.85146,0.2244 -1.64662,0.0312 -0.78913,-0.20355 -1.35688,-0.76314 -0.55957,-0.56174 -0.77749,-1.38864 -0.21793,-0.8269 -0.008,-1.59147 0.21821,-0.76672 0.80668,-1.32457 0.59449,-0.5682 1.44595,-0.7926 0.85147,-0.22439 1.63025,-0.0269 0.78697,0.19536 1.35688,0.76314 0.56775,0.55958 0.78568,1.38648 0.21792,0.8269 0.002,1.60181 -0.21821,0.76673 -0.80668,1.32458 -0.58027,0.55569 -1.43173,0.78009 z m -0.14241,-0.54035 q 0.67953,-0.17909 1.14823,-0.62657 0.46655,-0.45568 0.63525,-1.07802 0.16655,-0.63053 -0.0104,-1.30187 -0.17693,-0.67134 -0.63044,-1.1297 -0.45568,-0.46655 -1.08405,-0.62491 -0.63053,-0.16654 -1.31006,0.0125 -0.67953,0.17909 -1.15426,0.63692 -0.46871,0.44749 -0.64344,1.08017 -0.1687,0.62235 0.008,1.29369 0.17692,0.67134 0.6326,1.13789 0.4617,0.4562 1.09223,0.62275 0.63656,0.1562 1.31609,-0.0229 z"
         style="font-style:normal;font-variant:normal;font-weight:normal;font-stretch:normal;font-size:8.46666622px;font-family:Montserrat;-inkscape-font-specification:'Montserrat, Normal';font-variant-ligatures:normal;font-variant-caps:normal;font-variant-numeric:normal;font-feature-settings:normal;text-align:start;writing-mode:lr-tb;text-anchor:start;fill:#ffffff;stroke-width:0.26458332"
         id="path985-3"
         inkscape:connector-curvature="0" />
      <path
         d="m 122.77885,112.33075 q 1.0402,-0.45293 1.84649,-0.21301 0.80629,0.23993 1.18486,1.10935 0.37857,0.86942 0.005,1.62312 -0.37702,0.74594 -1.41722,1.19887 l -1.45938,0.63546 0.747,1.71555 -0.57444,0.25013 -2.36607,-5.43388 z m 1.38383,3.22052 q 0.80732,-0.35153 1.08217,-0.88676 0.27146,-0.54299 -0.009,-1.18729 -0.28731,-0.65983 -0.86636,-0.82325 -0.58243,-0.17118 -1.38975,0.18035 l -1.44386,0.6287 1.18303,2.71695 z"
         style="font-style:normal;font-variant:normal;font-weight:normal;font-stretch:normal;font-size:8.46666622px;font-family:Montserrat;-inkscape-font-specification:'Montserrat, Normal';font-variant-ligatures:normal;font-variant-caps:normal;font-variant-numeric:normal;font-feature-settings:normal;text-align:start;writing-mode:lr-tb;text-anchor:start;fill:#ffffff;stroke-width:0.26458332"
         id="path987-2"
         inkscape:connector-curvature="0" />
      <path
         d="m 131.9592,107.13141 3.20057,4.98816 -0.50594,0.32463 -2.56046,-3.99053 0.19389,4.61369 -0.2494,0.16003 -4.09945,-2.07758 2.54674,3.96915 -0.50594,0.32463 -3.20057,-4.98815 0.43468,-0.27891 4.53928,2.3084 -0.22808,-5.07461 z"
         style="font-style:normal;font-variant:normal;font-weight:normal;font-stretch:normal;font-size:8.46666622px;font-family:Montserrat;-inkscape-font-specification:'Montserrat, Normal';font-variant-ligatures:normal;font-variant-caps:normal;font-variant-numeric:normal;font-feature-settings:normal;text-align:start;writing-mode:lr-tb;text-anchor:start;fill:#ffffff;stroke-width:0.26458332"
         id="path989-19"
         inkscape:connector-curvature="0" />
      <path
         d="m 140.66312,106.72708 0.36091,0.40418 -3.12611,2.7914 -3.94743,-4.42076 3.03138,-2.70681 0.36091,0.40418 -2.56405,2.28951 1.40416,1.57253 2.28617,-2.04139 0.35527,0.39787 -2.28617,2.04139 1.46619,1.642 z"
         style="font-style:normal;font-variant:normal;font-weight:normal;font-stretch:normal;font-size:8.46666622px;font-family:Montserrat;-inkscape-font-specification:'Montserrat, Normal';font-variant-ligatures:normal;font-variant-caps:normal;font-variant-numeric:normal;font-feature-settings:normal;text-align:start;writing-mode:lr-tb;text-anchor:start;fill:#ffffff;stroke-width:0.26458332"
         id="path991-7"
         inkscape:connector-curvature="0" />
      <path
         d="m 141.76539,97.341112 4.55748,3.788768 -0.33016,0.39715 -6.13371,-0.1445 3.69807,3.07431 -0.40052,0.48179 -4.55748,-3.78877 0.33016,-0.39715 6.13912,0.13799 -3.69807,-3.074308 z"
         style="font-style:normal;font-variant:normal;font-weight:normal;font-stretch:normal;font-size:8.46666622px;font-family:Montserrat;-inkscape-font-specification:'Montserrat, Normal';font-variant-ligatures:normal;font-variant-caps:normal;font-variant-numeric:normal;font-feature-settings:normal;text-align:start;writing-mode:lr-tb;text-anchor:start;fill:#ffffff;stroke-width:0.26458332"
         id="path993-6"
         inkscape:connector-curvature="0" />
      <path
         d="m 144.33222,94.436206 -1.09435,1.772127 -0.46105,-0.284712 2.51792,-4.077332 0.46104,0.284712 -1.09436,1.772126 4.5816,2.82932 -0.3292,0.533079 z"
         style="font-style:normal;font-variant:normal;font-weight:normal;font-stretch:normal;font-size:8.46666622px;font-family:Montserrat;-inkscape-font-specification:'Montserrat, Normal';font-variant-ligatures:normal;font-variant-caps:normal;font-variant-numeric:normal;font-feature-settings:normal;text-align:start;writing-mode:lr-tb;text-anchor:start;fill:#ffffff;stroke-width:0.26458332"
         id="path995-8"
         inkscape:connector-curvature="0" />
    </g>
  </g>
</svg>
