<?xml version="1.0" encoding="UTF-8" standalone="no"?>
<!-- Created with Inkscape (http://www.inkscape.org/) -->

<svg
   xmlns:dc="http://purl.org/dc/elements/1.1/"
   xmlns:cc="http://creativecommons.org/ns#"
   xmlns:rdf="http://www.w3.org/1999/02/22-rdf-syntax-ns#"
   xmlns:svg="http://www.w3.org/2000/svg"
   xmlns="http://www.w3.org/2000/svg"
   xmlns:sodipodi="http://sodipodi.sourceforge.net/DTD/sodipodi-0.dtd"
   xmlns:inkscape="http://www.inkscape.org/namespaces/inkscape"
   width="100"
   height="71"
   viewBox="0 0 26.458333 18.785417"
   version="1.1"
   id="svg8"
   inkscape:version="0.92.3 (2405546, 2018-03-11)"
   sodipodi:docname="logo_short.svg"
   inkscape:export-filename="/home/opodchasov/Рабочий стол/mysite/design/logo.svg.png"
   inkscape:export-xdpi="96"
   inkscape:export-ydpi="96">
  <defs
     id="defs2" />
  <sodipodi:namedview
     id="base"
     pagecolor="#ffffff"
     bordercolor="#666666"
     borderopacity="1.0"
     inkscape:pageopacity="0.0"
     inkscape:pageshadow="2"
     inkscape:zoom="7.9999999"
     inkscape:cx="42.960092"
     inkscape:cy="30.248944"
     inkscape:document-units="px"
     inkscape:current-layer="layer2"
     showgrid="false"
     inkscape:window-width="1920"
     inkscape:window-height="1004"
     inkscape:window-x="0"
     inkscape:window-y="0"
     inkscape:window-maximized="1"
     inkscape:object-paths="true"
     showguides="true"
     inkscape:guide-bbox="true"
     units="px" />
  <metadata
     id="metadata5">
    <rdf:RDF>
      <cc:Work
         rdf:about="">
        <dc:format>image/svg+xml</dc:format>
        <dc:type
           rdf:resource="http://purl.org/dc/dcmitype/StillImage" />
        <dc:title></dc:title>
      </cc:Work>
    </rdf:RDF>
  </metadata>
  <g
     inkscape:groupmode="layer"
     id="layer2"
     inkscape:label="Layer 2"
     style="opacity:1"
     transform="translate(0,-278.21457)">
    <path
       style="opacity:1;fill:#000000;stroke-width:0.04798989"
       d="m 10.829611,290.95438 c -0.462144,-0.12588 -0.908543,-0.541 -1.1687298,-1.08696 -0.1282461,-0.26922 -0.1487368,-0.36527 -0.1487368,-0.69962 0,-0.34732 0.014025,-0.41197 0.1445292,-0.62139 0.079431,-0.12863 0.2629919,-0.32738 0.4079214,-0.44146 0.55933,-0.44104 0.665696,-0.54733 0.816209,-0.81573 0.659689,-1.17628 1.741726,-1.75781 2.718603,-1.46109 0.627866,0.19054 1.229042,0.69706 1.613025,1.35861 0.195328,0.3366 0.361668,0.51076 0.852859,0.89331 0.523969,0.408 0.701564,0.87217 0.554051,1.44799 -0.0977,0.38087 -0.275614,0.68502 -0.579057,0.98961 -0.509095,0.51093 -0.89263,0.57093 -1.873095,0.29282 -0.958245,-0.27161 -1.303107,-0.26648 -2.303502,0.0342 -0.514175,0.15393 -0.772792,0.18198 -1.034159,0.11049 z m -1.6127988,-3.36696 c -0.4355102,-0.26101 -0.662327,-0.81881 -0.6319057,-1.5538 0.016762,-0.40017 0.037868,-0.49578 0.1613596,-0.72149 0.2057275,-0.37642 0.4360438,-0.5448 0.7788021,-0.56929 0.249206,-0.0171 0.2974395,-0.007 0.5117568,0.14094 0.729207,0.4952 0.86097,1.94281 0.23152,2.54443 -0.24274,0.23193 -0.3488129,0.27948 -0.6210136,0.27914 -0.160265,-3.8e-4 -0.2922056,-0.0373 -0.4305705,-0.12007 z m 6.9660378,0.0646 c -0.472136,-0.26067 -0.747337,-0.96788 -0.648547,-1.667 0.157733,-1.116 1.108164,-1.63952 1.717171,-0.94592 0.308967,0.35194 0.447603,0.92526 0.352432,1.45778 -0.127699,0.71444 -0.571843,1.21254 -1.078554,1.20956 -0.135566,-8.8e-4 -0.289742,-0.0274 -0.342502,-0.0547 z m -4.846979,-2.04924 c -0.83372,-0.37971 -1.098289,-1.85343 -0.49596,-2.76281 0.333392,-0.50327 0.889202,-0.65649 1.341382,-0.36973 0.648322,0.41115 0.895715,1.55914 0.52324,2.42806 -0.189444,0.44218 -0.635022,0.79192 -1.008732,0.79192 -0.09233,0 -0.254268,-0.039 -0.35993,-0.0876 z m 2.780403,0.003 c -0.354067,-0.19772 -0.547825,-0.43441 -0.698786,-0.85441 -0.133309,-0.37078 -0.148189,-1.03541 -0.03181,-1.41208 0.38662,-1.25034 1.598821,-1.36439 2.106935,-0.19806 0.391949,0.89957 0.06623,2.12558 -0.653573,2.45952 -0.238568,0.1105 -0.529973,0.11289 -0.722838,0.007 z"
       id="path1118-5-8"
       inkscape:connector-curvature="0"
       inkscape:export-xdpi="732.77063"
       inkscape:export-ydpi="732.77063" />
    <text
       xml:space="preserve"
       style="font-style:normal;font-variant:normal;font-weight:normal;font-stretch:normal;font-size:14.60820961px;line-height:1.25;font-family:Manjari;-inkscape-font-specification:'Manjari, Normal';font-variant-ligatures:normal;font-variant-caps:normal;font-variant-numeric:normal;font-feature-settings:normal;text-align:start;letter-spacing:1.92280185px;word-spacing:0px;writing-mode:lr-tb;text-anchor:start;opacity:1;fill:#000000;fill-opacity:1;stroke:none;stroke-width:0.32370397;"
       x="-0.50424814"
       y="290.31885"
       id="text1122-8-9"
       inkscape:export-xdpi="732.77063"
       inkscape:export-ydpi="732.77063"><tspan
         sodipodi:role="line"
         id="tspan1120-2-5"
         x="-0.50424814"
         y="290.31885"
         style="font-style:normal;font-variant:normal;font-weight:normal;font-stretch:normal;font-size:14.60820961px;font-family:Manjari;-inkscape-font-specification:'Manjari, Normal';font-variant-ligatures:normal;font-variant-caps:normal;font-variant-numeric:normal;font-feature-settings:normal;text-align:start;writing-mode:lr-tb;text-anchor:start;fill:#000000;stroke-width:0.32370397;">&lt;  &gt;</tspan></text>
  </g>
</svg>
